<svg width="25" height="25" viewBox="0 0 25 25" fill="none" xmlns="http://www.w3.org/2000/svg">
<path d="M21.2822 12.3277C21.2857 13.6475 20.9773 14.9496 20.3822 16.1277C19.6767 17.5394 18.592 18.7268 17.2497 19.5569C15.9074 20.3871 14.3605 20.8271 12.7822 20.8277C11.4624 20.8311 10.1603 20.5227 8.98223 19.9277L3.28223 21.8277L5.18223 16.1277C4.58716 14.9496 4.27879 13.6475 4.28223 12.3277C4.28284 10.7494 4.72284 9.20252 5.55295 7.86022C6.38305 6.51791 7.57048 5.43323 8.98223 4.72767C10.1603 4.1326 11.4624 3.82422 12.7822 3.82767H13.2822C15.3666 3.94266 17.3353 4.82243 18.8114 6.29852C20.2875 7.77462 21.1672 9.74332 21.2822 11.8277V12.3277Z" stroke="black" stroke-width="2" stroke-linecap="round" stroke-linejoin="round"/>
</svg>
